<svg width="18" height="18" viewBox="0 0 18 18" fill="none" xmlns="http://www.w3.org/2000/svg">
<path d="M9 0C4.02991 0 0 4.13438 0 9.22902C0 13.3071 2.57946 16.7625 6.15536 17.9839C6.20551 17.9948 6.25671 18.0002 6.30804 18C6.64152 18 6.77009 17.7549 6.77009 17.542C6.77009 17.321 6.76205 16.7424 6.75804 15.971C6.46033 16.0408 6.15577 16.0772 5.85 16.0795C4.1183 16.0795 3.72455 14.7335 3.72455 14.7335C3.31473 13.6688 2.72411 13.3835 2.72411 13.3835C1.94063 12.833 2.72009 12.817 2.78036 12.817H2.78438C3.68839 12.8973 4.1625 13.7732 4.1625 13.7732C4.6125 14.5607 5.21518 14.7817 5.75357 14.7817C6.10957 14.7746 6.46006 14.6924 6.78214 14.5406C6.8625 13.946 7.09554 13.5402 7.35268 13.3071C5.3558 13.0741 3.25446 12.2826 3.25446 8.74687C3.25446 7.73839 3.60402 6.91473 4.17857 6.27188C4.08616 6.03884 3.77679 5.09866 4.26696 3.82902C4.33271 3.81328 4.40029 3.80653 4.46786 3.80893C4.7933 3.80893 5.52857 3.93348 6.74196 4.77723C8.21633 4.36472 9.77563 4.36472 11.25 4.77723C12.4634 3.93348 13.1987 3.80893 13.5241 3.80893C13.5917 3.80653 13.6592 3.81328 13.725 3.82902C14.2152 5.09866 13.9058 6.03884 13.8134 6.27188C14.3879 6.91875 14.7375 7.74241 14.7375 8.74687C14.7375 12.2906 12.6321 13.0701 10.6272 13.2991C10.9487 13.5844 11.2379 14.1469 11.2379 15.0067C11.2379 16.2402 11.2259 17.2366 11.2259 17.5379C11.2259 17.7549 11.3504 18 11.6839 18C11.7379 18.0002 11.7918 17.9949 11.8446 17.9839C15.4246 16.7625 18 13.3031 18 9.22902C18 4.13438 13.9701 0 9 0Z" fill="white"/>
</svg>
